<svg version="1.1" width="583" height="523" viewBox="-103 -163 583 523" xmlns="http://www.w3.org/2000/svg" xmlns:xlink="http://www.w3.org/1999/xlink">
  <!-- Exported by Scratch - http://scratch.mit.edu/ -->
  <g id="ID0.22402499755844474">
    <g id="ID0.584235580638051">
      <path id="ID0.7942976308986545" fill="#FFE9CC" d="M 235.885 -162.485 L 227.225 -162.485 L 239.133 174.251 L 235.885 -162.485 "/>
      <path id="ID0.38548843236640096" fill="#FFE9CC" d="M 206.057 -160.829 L 197.428 -160.075 L 238.643 174.343 L 206.057 -160.829 "/>
      <path id="ID0.8331666048616171" fill="#FFE9CC" d="M 176.485 -156.581 L 167.955 -155.077 L 238.158 174.478 L 176.485 -156.581 "/>
      <path id="ID0.963341046590358" fill="#FFE9CC" d="M 147.396 -149.771 L 139.029 -147.530 L 237.689 174.655 L 147.396 -149.771 "/>
      <path id="ID0.24731175741180778" fill="#FFE9CC" d="M 119.010 -140.452 L 110.871 -137.489 L 237.238 174.872 L 119.010 -140.452 "/>
      <path id="ID0.5388453681953251" fill="#FFE9CC" d="M 91.545 -128.694 L 83.695 -125.034 L 236.809 175.126 L 91.545 -128.694 "/>
      <path id="ID0.39854151057079434" fill="#FFE9CC" d="M 65.209 -114.587 L 57.708 -110.257 L 236.400 175.417 L 65.209 -114.587 "/>
      <path id="ID0.05553550645709038" fill="#FFE9CC" d="M 40.204 -98.239 L 33.108 -93.271 L 236.021 175.745 L 40.204 -98.239 "/>
      <path id="ID0.5676398230716586" fill="#FFE9CC" d="M 16.717 -79.772 L 10.082 -74.204 L 235.670 176.103 L 16.717 -79.772 "/>
      <path id="ID0.12987047899514437" fill="#FFE9CC" d="M -5.070 -59.329 L -11.195 -53.204 L 235.352 176.489 L -5.070 -59.329 "/>
      <path id="ID0.4075151109136641" fill="#FFE9CC" d="M -24.993 -37.065 L -30.561 -30.429 L 235.068 176.903 L -24.993 -37.065 "/>
      <path id="ID0.22937152860686183" fill="#FFE9CC" d="M -42.900 -13.149 L -47.869 -6.054 L 234.824 177.341 L -42.900 -13.149 "/>
      <path id="ID0.28545184759423137" fill="#FFE9CC" d="M -58.654 12.237 L -62.985 19.739 L 234.617 177.796 L -58.654 12.237 "/>
      <path id="ID0.47211115900427103" fill="#FFE9CC" d="M -72.136 38.899 L -75.797 46.751 L 234.451 178.269 L -72.136 38.899 "/>
      <path id="ID0.5084155150689185" fill="#FFE9CC" d="M -83.243 66.636 L -86.205 74.776 L 234.326 178.755 L -83.243 66.636 "/>
      <path id="ID0.04309671325609088" fill="#FFE9CC" d="M -91.890 95.235 L -94.132 103.603 L 234.244 179.249 L -91.890 95.235 "/>
      <path id="ID0.7309534652158618" fill="#FFE9CC" d="M -98.011 124.478 L -99.515 133.009 L 234.207 179.749 L -98.011 124.478 "/>
      <path id="ID0.8132532415911555" fill="#FFE9CC" d="M -101.561 154.146 L -102.316 162.774 L 234.211 180.249 L -101.561 154.146 "/>
      <path id="ID0.5577481086365879" fill="#FFE9CC" d="M -102.511 184.009 L -102.510 192.671 L 234.262 180.747 L -102.511 184.009 "/>
      <path id="ID0.7738204863853753" fill="#FFE9CC" d="M -100.855 213.841 L -100.100 222.470 L 234.354 181.239 L -100.855 213.841 "/>
      <path id="ID0.08421794231981039" fill="#FFE9CC" d="M -96.605 243.415 L -95.100 251.946 L 234.488 181.724 L -96.605 243.415 "/>
      <path id="ID0.326516916975379" fill="#FFE9CC" d="M -89.793 272.507 L -87.550 280.876 L 234.664 182.190 L -89.793 272.507 "/>
      <path id="ID0.4039515317417681" fill="#FFE9CC" d="M -80.472 300.896 L -77.509 309.034 L 234.881 182.644 L -80.472 300.896 "/>
      <path id="ID0.28850190062075853" fill="#FFE9CC" d="M -68.712 328.362 L -65.050 336.214 L 235.137 183.075 L -68.712 328.362 "/>
      <path id="ID0.16300299856811762" fill="#FFE9CC" d="M -54.603 354.700 L -50.271 362.204 L 235.428 183.481 L -54.603 354.700 "/>
      <path id="ID0.5238147331401706" fill="#FFE9CC" d="M -38.251 379.710 L -33.283 386.806 L 235.756 183.862 L -38.251 379.710 "/>
      <path id="ID0.32878577848896384" fill="#FFE9CC" d="M -19.783 403.198 L -14.213 409.833 L 236.113 184.212 L -19.783 403.198 "/>
      <path id="ID0.28298575757071376" fill="#FFE9CC" d="M 0.663 424.987 L 6.790 431.112 L 236.500 184.530 L 0.663 424.987 "/>
      <path id="ID0.2698727869428694" fill="#FFE9CC" d="M 22.931 444.911 L 29.568 450.479 L 236.914 184.813 L 22.931 444.911 "/>
      <path id="ID0.2536630886606872" fill="#FFE9CC" d="M 46.850 462.819 L 53.948 467.788 L 237.352 185.060 L 46.850 462.819 "/>
      <path id="ID0.33520949305966496" fill="#FFE9CC" d="M 72.240 478.573 L 79.743 482.905 L 237.809 185.265 L 72.240 478.573 "/>
      <path id="ID0.8653518119826913" fill="#FFE9CC" d="M 98.905 492.058 L 106.758 495.718 L 238.279 185.433 L 98.905 492.058 "/>
      <path id="ID0.7084681950509548" fill="#FFE9CC" d="M 126.645 503.163 L 134.787 506.126 L 238.766 185.556 L 126.645 503.163 "/>
      <path id="ID0.8599348138086498" fill="#FFE9CC" d="M 155.248 511.812 L 163.617 514.052 L 239.260 185.638 L 155.248 511.812 "/>
      <path id="ID0.07020288752391934" fill="#FFE9CC" d="M 184.496 517.933 L 193.028 519.437 L 239.760 185.675 L 184.496 517.933 "/>
      <path id="ID0.9027530993334949" fill="#FFE9CC" d="M 222.797 522.235 L 240.262 185.671 L 214.166 521.479 L 222.797 522.235 "/>
      <path id="ID0.9739436078816652" fill="#FFE9CC" d="M 244.031 522.431 L 252.695 522.429 L 240.758 185.622 L 244.031 522.431 "/>
      <path id="ID0.7521966942586005" fill="#FFE9CC" d="M 273.867 520.772 L 282.498 520.017 L 241.252 185.528 L 273.867 520.772 "/>
      <path id="ID0.7258646660484374" fill="#FFE9CC" d="M 303.445 516.521 L 311.977 515.017 L 241.734 185.394 L 303.445 516.521 "/>
      <path id="ID0.9602416772395372" fill="#FFE9CC" d="M 332.541 509.708 L 340.908 507.464 L 242.203 185.218 L 332.541 509.708 "/>
      <path id="ID0.5806712242774665" fill="#FFE9CC" d="M 360.932 500.384 L 369.072 497.421 L 242.654 185.001 L 360.932 500.384 "/>
      <path id="ID0.8262171018868685" fill="#FFE9CC" d="M 388.400 488.622 L 396.252 484.960 L 243.086 184.745 L 388.400 488.622 "/>
      <path id="ID0.02720594173297286" fill="#FFE9CC" d="M 414.742 474.511 L 422.244 470.177 L 243.492 184.452 L 414.742 474.511 "/>
      <path id="ID0.08395410887897015" fill="#FFE9CC" d="M 439.752 458.157 L 446.848 453.187 L 243.873 184.126 L 439.752 458.157 "/>
      <path id="ID0.9704422424547374" fill="#FFE9CC" d="M 463.242 439.685 L 469.879 434.114 L 244.223 183.769 L 463.242 439.685 "/>
      <path id="ID0.08654020866379142" fill="#FFE9CC" d="M 485.033 419.235 L 491.158 413.108 L 244.541 183.382 L 485.033 419.235 "/>
      <path id="ID0.29560090880841017" fill="#FFE9CC" d="M 504.959 396.966 L 510.527 390.327 L 244.824 182.968 L 504.959 396.966 "/>
      <path id="ID0.06509905215352774" fill="#FFE9CC" d="M 522.867 373.042 L 527.836 365.944 L 245.070 182.530 L 522.867 373.042 "/>
      <path id="ID0.5898076044395566" fill="#FFE9CC" d="M 538.623 347.649 L 542.955 340.146 L 245.277 182.075 L 538.623 347.649 "/>
      <path id="ID0.2879606387577951" fill="#FFE9CC" d="M 552.107 320.981 L 555.768 313.128 L 245.443 181.603 L 552.107 320.981 "/>
      <path id="ID0.48223673226311803" fill="#FFE9CC" d="M 563.213 293.237 L 566.176 285.095 L 245.566 181.116 L 563.213 293.237 "/>
      <path id="ID0.9253581673838198" fill="#FFE9CC" d="M 571.861 264.632 L 574.102 256.263 L 245.648 180.622 L 571.861 264.632 "/>
      <path id="ID0.4882639702409506" fill="#FFE9CC" d="M 577.982 235.380 L 579.484 226.849 L 245.688 180.122 L 577.982 235.380 "/>
      <path id="ID0.8559215730056167" fill="#FFE9CC" d="M 581.529 205.708 L 582.283 197.075 L 245.682 179.620 L 581.529 205.708 "/>
      <path id="ID0.45587849151343107" fill="#FFE9CC" d="M 582.479 175.837 L 582.477 167.173 L 245.633 179.122 L 582.479 175.837 "/>
      <path id="ID0.2846420812420547" fill="#FFE9CC" d="M 580.820 145.999 L 580.064 137.366 L 245.541 178.630 L 580.820 145.999 "/>
      <path id="ID0.17435582960024476" fill="#FFE9CC" d="M 576.566 116.417 L 575.061 107.886 L 245.404 178.147 L 576.566 116.417 "/>
      <path id="ID0.6214579083025455" fill="#FFE9CC" d="M 569.752 87.319 L 567.508 78.950 L 245.229 177.679 L 569.752 87.319 "/>
      <path id="ID0.45387432677671313" fill="#FFE9CC" d="M 560.426 58.927 L 557.461 50.784 L 245.012 177.226 L 560.426 58.927 "/>
      <path id="ID0.5291203116066754" fill="#FFE9CC" d="M 548.662 31.454 L 544.998 23.601 L 244.756 176.796 L 548.662 31.454 "/>
      <path id="ID0.11203847359865904" fill="#FFE9CC" d="M 534.547 5.110 L 530.215 -2.392 L 244.465 176.388 L 534.547 5.110 "/>
      <path id="ID0.022973719984292984" fill="#FFE9CC" d="M 518.191 -19.901 L 513.221 -26.999 L 244.137 176.009 L 518.191 -19.901 "/>
      <path id="ID0.981099943164736" fill="#FFE9CC" d="M 499.717 -43.394 L 494.145 -50.030 L 243.779 175.657 L 499.717 -43.394 "/>
      <path id="ID0.8956997846253216" fill="#FFE9CC" d="M 479.264 -65.187 L 473.137 -71.313 L 243.393 175.339 L 479.264 -65.187 "/>
      <path id="ID0.3415975719690323" fill="#FFE9CC" d="M 456.990 -85.112 L 450.352 -90.683 L 242.979 175.056 L 456.990 -85.112 "/>
      <path id="ID0.04177351528778672" fill="#FFE9CC" d="M 433.064 -103.024 L 425.965 -107.993 L 242.543 174.812 L 433.064 -103.024 "/>
      <path id="ID0.11602087924256921" fill="#FFE9CC" d="M 407.668 -118.780 L 400.164 -123.112 L 242.086 174.603 L 407.668 -118.780 "/>
      <path id="ID0.8942551272921264" fill="#FFE9CC" d="M 380.996 -132.263 L 373.143 -135.925 L 241.613 174.438 L 380.996 -132.263 "/>
      <path id="ID0.39081165473908186" fill="#FFE9CC" d="M 353.250 -143.370 L 345.105 -146.333 L 241.127 174.313 L 353.250 -143.370 "/>
      <path id="ID0.325338127091527" fill="#FFE9CC" d="M 316.270 -154.259 L 240.633 174.231 L 324.641 -152.019 L 316.270 -154.259 "/>
      <path id="ID0.9072735980153084" fill="#FFE9CC" d="M 295.387 -158.138 L 286.852 -159.642 L 240.133 174.194 L 295.387 -158.138 "/>
      <path id="ID0.44776843348518014" fill="#FFE9CC" d="M 257.076 -162.440 L 239.631 174.200 L 265.709 -161.687 L 257.076 -162.440 "/>
    </g>
  </g>
</svg>